<svg width="20" height="20" viewBox="0 0 20 20" fill="none" xmlns="http://www.w3.org/2000/svg">
<path d="M10 0.625C5.90625 0.625 2.4375 3.25 1.15625 6.875H18.8437C17.5625 3.25 14.0937 0.625 10 0.625Z" fill="#3890D1"/>
<path d="M10 19.375C14.0937 19.375 17.5625 16.7812 18.8437 13.125H1.15625C2.4375 16.7812 5.90625 19.375 10 19.375Z" fill="#4CAF50"/>
<path d="M1.15625 6.875C0.8125 7.84375 0.625 8.90625 0.625 10C0.625 11.0938 0.8125 12.1562 1.15625 13.125H18.8438C19.1875 12.1562 19.375 11.0938 19.375 10C19.375 8.90625 19.1875 7.84375 18.8438 6.875H1.15625Z" fill="#E53935"/>
<path d="M9.875 12.5625C8.46875 12.5625 7.3125 11.4063 7.3125 10C7.3125 8.59375 8.46875 7.4375 9.875 7.4375C10.2188 7.4375 10.5312 7.5 10.8125 7.625C10.3125 7.25 9.6875 7 9 7C7.34375 7 6.03125 8.34375 6.03125 10C6.03125 11.6563 7.375 13 9 13C9.6875 13 10.3125 12.7812 10.8125 12.375C10.5312 12.5 10.2188 12.5625 9.875 12.5625ZM12.625 10.4375L11.9375 10.9063L12.375 10.1875L11.5625 10L12.375 9.8125L11.9063 9.125L12.625 9.5625L12.8125 8.75L13 9.5625L13.6875 9.09375L13.25 9.8125L14.0625 10L13.25 10.1875L13.7188 10.875L13 10.4375L12.8125 11.25L12.625 10.4375Z" fill="white"/>
</svg>
